<svg xmlns="http://www.w3.org/2000/svg" viewBox="0 0 24 24" fill="#000">
  <path d="M12 2c-.55 0-1 .45-1 1v2c0 .55.45 1 1 1s1-.45 1-1V3c0-.55-.45-1-1-1zm0 6c-.55 0-1 .45-1 1v4c0 .55.45 1 1 1s1-.45 1-1V9c0-.55-.45-1-1-1zm-4.5 2.5c-.28 0-.5.22-.5.5v2c0 .28.22.5.5.5s.5-.22.5-.5v-2c0-.28-.22-.5-.5-.5zm9 0c-.28 0-.5.22-.5.5v2c0 .28.22.5.5.5s.5-.22.5-.5v-2c0-.28-.22-.5-.5-.5zM7 14c-.55 0-1 .45-1 1v3c0 .55.45 1 1 1s1-.45 1-1v-3c0-.55-.45-1-1-1zm10 0c-.55 0-1 .45-1 1v3c0 .55.45 1 1 1s1-.45 1-1v-3c0-.55-.45-1-1-1zm-5 2c-.55 0-1 .45-1 1v2c0 .55.45 1 1 1s1-.45 1-1v-2c0-.55-.45-1-1-1z"/>
</svg>
