<svg xmlns="http://www.w3.org/2000/svg" viewBox="0 0 384 512" width="384px" height="512px"><path fill="#000000" d="M318.7 268.7c-.2-36.7 16.4-64.4 50-84.8-18.8-26.9-47.2-41.7-84.7-44.6-35.5-2.8-74.3 20.7-88.5 20.7-15 0-49.4-19.7-76.4-19.7C63.3 141.2 4 184.8 4 273.5c0 62.6 23.6 130.5 59.1 179.8 21.1 30.3 54.6 66 89.5 64.9 25.8-1.1 38.5-19.1 75.8-19.1 35.6 0 51.6 19.4 79 17.5 35-2.1 63.2-31.5 87.2-64.4-6.1-9.7-29.8-38.3-75.9-103.5zM224.1 140c19.6-25.5 31-52.6 26.2-79-24.8 2.6-54.8 17.2-73.6 39.5-18.1 22.3-30.8 52.3-25.1 77.2 26.5 0 51-17.7 72.5-37.7z"/></svg>
