<svg xmlns="http://www.w3.org/2000/svg" viewBox="0 0 48 48" width="48px" height="48px"><path fill="#1877F2" d="M24,4C12.954,4,4,12.954,4,24c0,9.981,7.348,18.259,16.875,19.754V29.778h-5.08V24h5.08v-4.408c0-5.013,2.992-7.791,7.561-7.791c2.189,0,4.477,0.391,4.477,0.391v4.922h-2.522c-2.485,0-3.261,1.542-3.261,3.125V24h5.547l-0.887,5.778h-4.66V43.754C36.652,42.259,44,33.981,44,24C44,12.954,35.046,4,24,4z"/><path fill="#FEFEFE" d="M29.697,29.778L30.584,24H25.037v-3.754c0-1.583,0.776-3.125,3.261-3.125h2.522v-4.922c0,0-2.288-0.391-4.477-0.391c-4.569,0-7.561,2.778-7.561,7.791V24h-5.08v5.778h5.08v13.976C19.828,43.921,20.899,44,22,44c1.031,0,2.035-0.07,3.037-0.198V29.778H29.697z"/></svg>
